<?xml version="1.0" encoding="utf-8" standalone="no"?>
<!DOCTYPE svg PUBLIC "-//W3C//DTD SVG 1.1//EN"
  "http://www.w3.org/Graphics/SVG/1.1/DTD/svg11.dtd">
<!-- Created with matplotlib (https://matplotlib.org/) -->
<svg height="345.6pt" version="1.1" viewBox="0 0 460.8 345.6" width="460.8pt" xmlns="http://www.w3.org/2000/svg" xmlns:xlink="http://www.w3.org/1999/xlink">
 <defs>
  <style type="text/css">
*{stroke-linecap:butt;stroke-linejoin:round;}
  </style>
 </defs>
 <g id="figure_1">
  <g id="patch_1">
   <path d="M 0 345.6 
L 460.8 345.6 
L 460.8 0 
L 0 0 
z
" style="fill:#ffffff;"/>
  </g>
  <g id="axes_1">
   <g id="patch_2">
    <path d="M 57.6 307.584 
L 414.72 307.584 
L 414.72 41.472 
L 57.6 41.472 
z
" style="fill:#ffffff;"/>
   </g>
   <g id="patch_3">
    <path clip-path="url(#p8c1c48f916)" d="M 383.730248 174.528 
Q 283.065497 124.520355 183.402036 75.010125 
" style="fill:none;stroke:#808080;stroke-linecap:round;"/>
    <path clip-path="url(#p8c1c48f916)" d="M 186.094553 78.580888 
L 183.402036 75.010125 
L 187.874157 74.998569 
L 186.094553 78.580888 
z
" style="fill:#808080;stroke:#808080;stroke-linecap:round;"/>
   </g>
   <g id="patch_4">
    <path clip-path="url(#p8c1c48f916)" d="M 383.730248 174.528 
Q 247.339905 174.528005 111.955793 174.52801 
" style="fill:none;stroke:#808080;stroke-linecap:round;stroke-width:0.9;"/>
    <path clip-path="url(#p8c1c48f916)" d="M 115.955794 176.52801 
L 111.955793 174.52801 
L 115.955793 172.52801 
L 115.955794 176.52801 
z
" style="fill:#808080;stroke:#808080;stroke-linecap:round;stroke-width:0.9;"/>
   </g>
   <g id="patch_5">
    <path clip-path="url(#p8c1c48f916)" d="M 383.730248 174.528 
Q 283.065507 224.535648 182.901411 274.294589 
" style="fill:none;stroke:#808080;stroke-linecap:round;stroke-width:0.5;"/>
    <path clip-path="url(#p8c1c48f916)" d="M 187.373532 274.306145 
L 182.901411 274.294589 
L 185.593928 270.723826 
L 187.373532 274.306145 
z
" style="fill:#808080;stroke:#808080;stroke-linecap:round;stroke-width:0.5;"/>
   </g>
   <g id="patch_6">
    <path clip-path="url(#p8c1c48f916)" d="M 383.730248 174.528 
Q 353.067128 220.225931 326.764682 259.425053 
" style="fill:none;stroke:#808080;stroke-linecap:round;stroke-width:7;"/>
    <path clip-path="url(#p8c1c48f916)" d="M 330.654203 257.217877 
L 326.764682 259.425053 
L 327.332653 254.989131 
L 330.654203 257.217877 
z
" style="fill:#808080;stroke:#808080;stroke-linecap:round;stroke-width:7;"/>
   </g>
   <g id="patch_7">
    <path clip-path="url(#p8c1c48f916)" d="M 309.94512 64.564364 
Q 247.339899 64.564367 186.07632 64.56437 
" style="fill:none;stroke:#808080;stroke-linecap:round;stroke-width:1.2;"/>
    <path clip-path="url(#p8c1c48f916)" d="M 190.07632 66.56437 
L 186.07632 64.56437 
L 190.076319 62.56437 
L 190.07632 66.56437 
z
" style="fill:#808080;stroke:#808080;stroke-linecap:round;stroke-width:1.2;"/>
   </g>
   <g id="patch_8">
    <path clip-path="url(#p8c1c48f916)" d="M 309.94512 64.564364 
Q 242.389451 165.244113 174.958374 265.738183 
" style="fill:none;stroke:#808080;stroke-linecap:round;stroke-width:0.2;"/>
    <path clip-path="url(#p8c1c48f916)" d="M 178.847894 263.531005 
L 174.958374 265.738183 
L 175.526344 261.30226 
L 178.847894 263.531005 
z
" style="fill:#808080;stroke:#808080;stroke-linecap:round;stroke-width:0.2;"/>
   </g>
   <g id="patch_9">
    <path clip-path="url(#p8c1c48f916)" d="M 309.94512 64.564364 
Q 309.945116 163.348073 309.945112 253.634724 
" style="fill:none;stroke:#808080;stroke-linecap:round;stroke-width:7.6;"/>
    <path clip-path="url(#p8c1c48f916)" d="M 311.945112 249.634724 
L 309.945112 253.634724 
L 307.945112 249.634724 
L 311.945112 249.634724 
z
" style="fill:#808080;stroke:#808080;stroke-linecap:round;stroke-width:7.6;"/>
   </g>
   <g id="patch_10">
    <path clip-path="url(#p8c1c48f916)" d="M 162.374867 64.564371 
Q 263.039618 114.572016 362.70308 164.082247 
" style="fill:none;stroke:#808080;stroke-linecap:round;"/>
    <path clip-path="url(#p8c1c48f916)" d="M 360.010562 160.511483 
L 362.70308 164.082247 
L 358.230959 164.093803 
L 360.010562 160.511483 
z
" style="fill:#808080;stroke:#808080;stroke-linecap:round;"/>
   </g>
   <g id="patch_11">
    <path clip-path="url(#p8c1c48f916)" d="M 162.374867 64.564371 
Q 224.980088 64.564368 286.243667 64.564365 
" style="fill:none;stroke:#808080;stroke-linecap:round;stroke-width:1.2;"/>
    <path clip-path="url(#p8c1c48f916)" d="M 282.243667 62.564365 
L 286.243667 64.564365 
L 282.243667 66.564365 
L 282.243667 62.564365 
z
" style="fill:#808080;stroke:#808080;stroke-linecap:round;stroke-width:1.2;"/>
   </g>
   <g id="patch_12">
    <path clip-path="url(#p8c1c48f916)" d="M 162.374867 64.564371 
Q 229.930541 165.244117 297.112444 265.366823 
" style="fill:none;stroke:#808080;stroke-linecap:round;stroke-width:0.6;"/>
    <path clip-path="url(#p8c1c48f916)" d="M 296.544473 260.9309 
L 297.112444 265.366823 
L 293.222923 263.159646 
L 296.544473 260.9309 
z
" style="fill:#808080;stroke:#808080;stroke-linecap:round;stroke-width:0.6;"/>
   </g>
   <g id="patch_13">
    <path clip-path="url(#p8c1c48f916)" d="M 88.589752 174.528011 
Q 224.980095 174.528006 360.364207 174.528001 
" style="fill:none;stroke:#808080;stroke-linecap:round;stroke-width:0.9;"/>
    <path clip-path="url(#p8c1c48f916)" d="M 356.364206 172.528001 
L 360.364207 174.528001 
L 356.364207 176.528001 
L 356.364206 172.528001 
z
" style="fill:#808080;stroke:#808080;stroke-linecap:round;stroke-width:0.9;"/>
   </g>
   <g id="patch_14">
    <path clip-path="url(#p8c1c48f916)" d="M 88.589752 174.528011 
Q 189.254493 224.535654 287.115625 273.150537 
" style="fill:none;stroke:#808080;stroke-linecap:round;stroke-width:2.8;"/>
    <path clip-path="url(#p8c1c48f916)" d="M 284.423107 269.579774 
L 287.115625 273.150537 
L 282.643504 273.162093 
L 284.423107 269.579774 
z
" style="fill:#808080;stroke:#808080;stroke-linecap:round;stroke-width:2.8;"/>
   </g>
   <g id="patch_15">
    <path clip-path="url(#p8c1c48f916)" d="M 162.374889 284.491636 
Q 263.03963 234.483988 363.203726 184.725047 
" style="fill:none;stroke:#808080;stroke-linecap:round;stroke-width:0.5;"/>
    <path clip-path="url(#p8c1c48f916)" d="M 358.731605 184.713491 
L 363.203726 184.725047 
L 360.511209 188.29581 
L 358.731605 184.713491 
z
" style="fill:#808080;stroke:#808080;stroke-linecap:round;stroke-width:0.5;"/>
   </g>
   <g id="patch_16">
    <path clip-path="url(#p8c1c48f916)" d="M 162.374889 284.491636 
Q 229.930557 183.811887 297.361635 83.317817 
" style="fill:none;stroke:#808080;stroke-linecap:round;stroke-width:0.2;"/>
    <path clip-path="url(#p8c1c48f916)" d="M 293.472114 85.524995 
L 297.361635 83.317817 
L 296.793664 87.75374 
L 293.472114 85.524995 
z
" style="fill:#808080;stroke:#808080;stroke-linecap:round;stroke-width:0.2;"/>
   </g>
   <g id="patch_17">
    <path clip-path="url(#p8c1c48f916)" d="M 309.945111 284.491636 
Q 340.60823 238.793705 366.910676 199.594583 
" style="fill:none;stroke:#808080;stroke-linecap:round;stroke-width:7;"/>
    <path clip-path="url(#p8c1c48f916)" d="M 363.021156 201.80176 
L 366.910676 199.594583 
L 366.342705 204.030505 
L 363.021156 201.80176 
z
" style="fill:#808080;stroke:#808080;stroke-linecap:round;stroke-width:7;"/>
   </g>
   <g id="patch_18">
    <path clip-path="url(#p8c1c48f916)" d="M 309.945111 284.491636 
Q 309.945115 185.707927 309.945118 95.421276 
" style="fill:none;stroke:#808080;stroke-linecap:round;stroke-width:7.6;"/>
    <path clip-path="url(#p8c1c48f916)" d="M 307.945118 99.421276 
L 309.945118 95.421276 
L 311.945118 99.421276 
L 307.945118 99.421276 
z
" style="fill:#808080;stroke:#808080;stroke-linecap:round;stroke-width:7.6;"/>
   </g>
   <g id="patch_19">
    <path clip-path="url(#p8c1c48f916)" d="M 309.945111 284.491636 
Q 242.389437 183.81189 175.207534 83.689185 
" style="fill:none;stroke:#808080;stroke-linecap:round;stroke-width:0.6;"/>
    <path clip-path="url(#p8c1c48f916)" d="M 175.775505 88.125107 
L 175.207534 83.689185 
L 179.097055 85.896362 
L 175.775505 88.125107 
z
" style="fill:#808080;stroke:#808080;stroke-linecap:round;stroke-width:0.6;"/>
   </g>
   <g id="patch_20">
    <path clip-path="url(#p8c1c48f916)" d="M 309.945111 284.491636 
Q 209.28037 234.483993 111.419238 185.86911 
" style="fill:none;stroke:#808080;stroke-linecap:round;stroke-width:2.8;"/>
    <path clip-path="url(#p8c1c48f916)" d="M 114.111755 189.439873 
L 111.419238 185.86911 
L 115.891359 185.857554 
L 114.111755 189.439873 
z
" style="fill:#808080;stroke:#808080;stroke-linecap:round;stroke-width:2.8;"/>
   </g>
   <g id="matplotlib.axis_1">
    <g id="xtick_1"/>
    <g id="xtick_2"/>
    <g id="xtick_3"/>
    <g id="xtick_4"/>
    <g id="xtick_5"/>
   </g>
   <g id="matplotlib.axis_2">
    <g id="ytick_1"/>
    <g id="ytick_2"/>
    <g id="ytick_3"/>
    <g id="ytick_4"/>
    <g id="ytick_5"/>
    <g id="ytick_6"/>
    <g id="ytick_7"/>
    <g id="ytick_8"/>
    <g id="ytick_9"/>
   </g>
   <g id="PathCollection_1">
    <defs>
     <path d="M 0 22.36068 
C 5.930122 22.36068 11.618159 20.004617 15.811388 15.811388 
C 20.004617 11.618159 22.36068 5.930122 22.36068 0 
C 22.36068 -5.930122 20.004617 -11.618159 15.811388 -15.811388 
C 11.618159 -20.004617 5.930122 -22.36068 0 -22.36068 
C -5.930122 -22.36068 -11.618159 -20.004617 -15.811388 -15.811388 
C -20.004617 -11.618159 -22.36068 -5.930122 -22.36068 0 
C -22.36068 5.930122 -20.004617 11.618159 -15.811388 15.811388 
C -11.618159 20.004617 -5.930122 22.36068 0 22.36068 
z
" id="C0_0_9b82cb2ce8"/>
    </defs>
    <g clip-path="url(#p8c1c48f916)">
     <use style="fill:#0000ff;stroke:#0000ff;" x="383.730248" xlink:href="#C0_0_9b82cb2ce8" y="174.528"/>
    </g>
    <g clip-path="url(#p8c1c48f916)">
     <use style="fill:#0000ff;stroke:#0000ff;" x="309.94512" xlink:href="#C0_0_9b82cb2ce8" y="64.564364"/>
    </g>
    <g clip-path="url(#p8c1c48f916)">
     <use style="fill:#008000;stroke:#008000;" x="162.374867" xlink:href="#C0_0_9b82cb2ce8" y="64.564371"/>
    </g>
    <g clip-path="url(#p8c1c48f916)">
     <use style="fill:#008000;stroke:#008000;" x="88.589752" xlink:href="#C0_0_9b82cb2ce8" y="174.528011"/>
    </g>
    <g clip-path="url(#p8c1c48f916)">
     <use style="fill:#008000;stroke:#008000;" x="162.374889" xlink:href="#C0_0_9b82cb2ce8" y="284.491636"/>
    </g>
    <g clip-path="url(#p8c1c48f916)">
     <use style="fill:#ff0000;stroke:#ff0000;" x="309.945111" xlink:href="#C0_0_9b82cb2ce8" y="284.491636"/>
    </g>
   </g>
   <g id="patch_21">
    <path d="M 57.6 307.584 
L 57.6 41.472 
" style="fill:none;stroke:#000000;stroke-linecap:square;stroke-linejoin:miter;stroke-width:0.8;"/>
   </g>
   <g id="patch_22">
    <path d="M 414.72 307.584 
L 414.72 41.472 
" style="fill:none;stroke:#000000;stroke-linecap:square;stroke-linejoin:miter;stroke-width:0.8;"/>
   </g>
   <g id="patch_23">
    <path d="M 57.6 307.584 
L 414.72 307.584 
" style="fill:none;stroke:#000000;stroke-linecap:square;stroke-linejoin:miter;stroke-width:0.8;"/>
   </g>
   <g id="patch_24">
    <path d="M 57.6 41.472 
L 414.72 41.472 
" style="fill:none;stroke:#000000;stroke-linecap:square;stroke-linejoin:miter;stroke-width:0.8;"/>
   </g>
   <g id="text_1">
    <g clip-path="url(#p8c1c48f916)">
     <!-- ICL -->
     <defs>
      <path d="M 9.8125 72.90625 
L 19.671875 72.90625 
L 19.671875 0 
L 9.8125 0 
z
" id="DejaVuSans-73"/>
      <path d="M 64.40625 67.28125 
L 64.40625 56.890625 
Q 59.421875 61.53125 53.78125 63.8125 
Q 48.140625 66.109375 41.796875 66.109375 
Q 29.296875 66.109375 22.65625 58.46875 
Q 16.015625 50.828125 16.015625 36.375 
Q 16.015625 21.96875 22.65625 14.328125 
Q 29.296875 6.6875 41.796875 6.6875 
Q 48.140625 6.6875 53.78125 8.984375 
Q 59.421875 11.28125 64.40625 15.921875 
L 64.40625 5.609375 
Q 59.234375 2.09375 53.4375 0.328125 
Q 47.65625 -1.421875 41.21875 -1.421875 
Q 24.65625 -1.421875 15.125 8.703125 
Q 5.609375 18.84375 5.609375 36.375 
Q 5.609375 53.953125 15.125 64.078125 
Q 24.65625 74.21875 41.21875 74.21875 
Q 47.75 74.21875 53.53125 72.484375 
Q 59.328125 70.75 64.40625 67.28125 
z
" id="DejaVuSans-67"/>
      <path d="M 9.8125 72.90625 
L 19.671875 72.90625 
L 19.671875 8.296875 
L 55.171875 8.296875 
L 55.171875 0 
L 9.8125 0 
z
" id="DejaVuSans-76"/>
     </defs>
     <g transform="translate(374.427435 177.83925)scale(0.12 -0.12)">
      <use xlink:href="#DejaVuSans-73"/>
      <use x="29.492188" xlink:href="#DejaVuSans-67"/>
      <use x="99.316406" xlink:href="#DejaVuSans-76"/>
     </g>
    </g>
   </g>
   <g id="text_2">
    <g clip-path="url(#p8c1c48f916)">
     <!-- UoR -->
     <defs>
      <path d="M 8.6875 72.90625 
L 18.609375 72.90625 
L 18.609375 28.609375 
Q 18.609375 16.890625 22.84375 11.734375 
Q 27.09375 6.59375 36.625 6.59375 
Q 46.09375 6.59375 50.34375 11.734375 
Q 54.59375 16.890625 54.59375 28.609375 
L 54.59375 72.90625 
L 64.5 72.90625 
L 64.5 27.390625 
Q 64.5 13.140625 57.4375 5.859375 
Q 50.390625 -1.421875 36.625 -1.421875 
Q 22.796875 -1.421875 15.734375 5.859375 
Q 8.6875 13.140625 8.6875 27.390625 
z
" id="DejaVuSans-85"/>
      <path d="M 30.609375 48.390625 
Q 23.390625 48.390625 19.1875 42.75 
Q 14.984375 37.109375 14.984375 27.296875 
Q 14.984375 17.484375 19.15625 11.84375 
Q 23.34375 6.203125 30.609375 6.203125 
Q 37.796875 6.203125 41.984375 11.859375 
Q 46.1875 17.53125 46.1875 27.296875 
Q 46.1875 37.015625 41.984375 42.703125 
Q 37.796875 48.390625 30.609375 48.390625 
z
M 30.609375 56 
Q 42.328125 56 49.015625 48.375 
Q 55.71875 40.765625 55.71875 27.296875 
Q 55.71875 13.875 49.015625 6.21875 
Q 42.328125 -1.421875 30.609375 -1.421875 
Q 18.84375 -1.421875 12.171875 6.21875 
Q 5.515625 13.875 5.515625 27.296875 
Q 5.515625 40.765625 12.171875 48.375 
Q 18.84375 56 30.609375 56 
z
" id="DejaVuSans-111"/>
      <path d="M 44.390625 34.1875 
Q 47.5625 33.109375 50.5625 29.59375 
Q 53.5625 26.078125 56.59375 19.921875 
L 66.609375 0 
L 56 0 
L 46.6875 18.703125 
Q 43.0625 26.03125 39.671875 28.421875 
Q 36.28125 30.8125 30.421875 30.8125 
L 19.671875 30.8125 
L 19.671875 0 
L 9.8125 0 
L 9.8125 72.90625 
L 32.078125 72.90625 
Q 44.578125 72.90625 50.734375 67.671875 
Q 56.890625 62.453125 56.890625 51.90625 
Q 56.890625 45.015625 53.6875 40.46875 
Q 50.484375 35.9375 44.390625 34.1875 
z
M 19.671875 64.796875 
L 19.671875 38.921875 
L 32.078125 38.921875 
Q 39.203125 38.921875 42.84375 42.21875 
Q 46.484375 45.515625 46.484375 51.90625 
Q 46.484375 58.296875 42.84375 61.546875 
Q 39.203125 64.796875 32.078125 64.796875 
z
" id="DejaVuSans-82"/>
     </defs>
     <g transform="translate(297.713557 67.875614)scale(0.12 -0.12)">
      <use xlink:href="#DejaVuSans-85"/>
      <use x="73.193359" xlink:href="#DejaVuSans-111"/>
      <use x="134.375" xlink:href="#DejaVuSans-82"/>
     </g>
    </g>
   </g>
   <g id="text_3">
    <g clip-path="url(#p8c1c48f916)">
     <!-- CEH -->
     <defs>
      <path d="M 9.8125 72.90625 
L 55.90625 72.90625 
L 55.90625 64.59375 
L 19.671875 64.59375 
L 19.671875 43.015625 
L 54.390625 43.015625 
L 54.390625 34.71875 
L 19.671875 34.71875 
L 19.671875 8.296875 
L 56.78125 8.296875 
L 56.78125 0 
L 9.8125 0 
z
" id="DejaVuSans-69"/>
      <path d="M 9.8125 72.90625 
L 19.671875 72.90625 
L 19.671875 43.015625 
L 55.515625 43.015625 
L 55.515625 72.90625 
L 65.375 72.90625 
L 65.375 0 
L 55.515625 0 
L 55.515625 34.71875 
L 19.671875 34.71875 
L 19.671875 0 
L 9.8125 0 
z
" id="DejaVuSans-72"/>
     </defs>
     <g transform="translate(149.881742 67.875621)scale(0.12 -0.12)">
      <use xlink:href="#DejaVuSans-67"/>
      <use x="69.824219" xlink:href="#DejaVuSans-69"/>
      <use x="133.007812" xlink:href="#DejaVuSans-72"/>
     </g>
    </g>
   </g>
   <g id="text_4">
    <g clip-path="url(#p8c1c48f916)">
     <!-- ZSL -->
     <defs>
      <path d="M 5.609375 72.90625 
L 62.890625 72.90625 
L 62.890625 65.375 
L 16.796875 8.296875 
L 64.015625 8.296875 
L 64.015625 0 
L 4.5 0 
L 4.5 7.515625 
L 50.59375 64.59375 
L 5.609375 64.59375 
z
" id="DejaVuSans-90"/>
      <path d="M 53.515625 70.515625 
L 53.515625 60.890625 
Q 47.90625 63.578125 42.921875 64.890625 
Q 37.9375 66.21875 33.296875 66.21875 
Q 25.25 66.21875 20.875 63.09375 
Q 16.5 59.96875 16.5 54.203125 
Q 16.5 49.359375 19.40625 46.890625 
Q 22.3125 44.4375 30.421875 42.921875 
L 36.375 41.703125 
Q 47.40625 39.59375 52.65625 34.296875 
Q 57.90625 29 57.90625 20.125 
Q 57.90625 9.515625 50.796875 4.046875 
Q 43.703125 -1.421875 29.984375 -1.421875 
Q 24.8125 -1.421875 18.96875 -0.25 
Q 13.140625 0.921875 6.890625 3.21875 
L 6.890625 13.375 
Q 12.890625 10.015625 18.65625 8.296875 
Q 24.421875 6.59375 29.984375 6.59375 
Q 38.421875 6.59375 43.015625 9.90625 
Q 47.609375 13.234375 47.609375 19.390625 
Q 47.609375 24.75 44.3125 27.78125 
Q 41.015625 30.8125 33.5 32.328125 
L 27.484375 33.5 
Q 16.453125 35.6875 11.515625 40.375 
Q 6.59375 45.0625 6.59375 53.421875 
Q 6.59375 63.09375 13.40625 68.65625 
Q 20.21875 74.21875 32.171875 74.21875 
Q 37.3125 74.21875 42.625 73.28125 
Q 47.953125 72.359375 53.515625 70.515625 
z
" id="DejaVuSans-83"/>
     </defs>
     <g transform="translate(77.327565 177.839261)scale(0.12 -0.12)">
      <use xlink:href="#DejaVuSans-90"/>
      <use x="68.505859" xlink:href="#DejaVuSans-83"/>
      <use x="131.982422" xlink:href="#DejaVuSans-76"/>
     </g>
    </g>
   </g>
   <g id="text_5">
    <g clip-path="url(#p8c1c48f916)">
     <!-- CEFAS -->
     <defs>
      <path d="M 9.8125 72.90625 
L 51.703125 72.90625 
L 51.703125 64.59375 
L 19.671875 64.59375 
L 19.671875 43.109375 
L 48.578125 43.109375 
L 48.578125 34.8125 
L 19.671875 34.8125 
L 19.671875 0 
L 9.8125 0 
z
" id="DejaVuSans-70"/>
      <path d="M 34.1875 63.1875 
L 20.796875 26.90625 
L 47.609375 26.90625 
z
M 28.609375 72.90625 
L 39.796875 72.90625 
L 67.578125 0 
L 57.328125 0 
L 50.6875 18.703125 
L 17.828125 18.703125 
L 11.1875 0 
L 0.78125 0 
z
" id="DejaVuSans-65"/>
     </defs>
     <g transform="translate(143.038014 287.802886)scale(0.12 -0.12)">
      <use xlink:href="#DejaVuSans-67"/>
      <use x="69.824219" xlink:href="#DejaVuSans-69"/>
      <use x="133.007812" xlink:href="#DejaVuSans-70"/>
      <use x="190.386719" xlink:href="#DejaVuSans-65"/>
      <use x="258.794922" xlink:href="#DejaVuSans-83"/>
     </g>
    </g>
   </g>
   <g id="text_6">
    <g clip-path="url(#p8c1c48f916)">
     <!-- NonAc -->
     <defs>
      <path d="M 9.8125 72.90625 
L 23.09375 72.90625 
L 55.421875 11.921875 
L 55.421875 72.90625 
L 64.984375 72.90625 
L 64.984375 0 
L 51.703125 0 
L 19.390625 60.984375 
L 19.390625 0 
L 9.8125 0 
z
" id="DejaVuSans-78"/>
      <path d="M 54.890625 33.015625 
L 54.890625 0 
L 45.90625 0 
L 45.90625 32.71875 
Q 45.90625 40.484375 42.875 44.328125 
Q 39.84375 48.1875 33.796875 48.1875 
Q 26.515625 48.1875 22.3125 43.546875 
Q 18.109375 38.921875 18.109375 30.90625 
L 18.109375 0 
L 9.078125 0 
L 9.078125 54.6875 
L 18.109375 54.6875 
L 18.109375 46.1875 
Q 21.34375 51.125 25.703125 53.5625 
Q 30.078125 56 35.796875 56 
Q 45.21875 56 50.046875 50.171875 
Q 54.890625 44.34375 54.890625 33.015625 
z
" id="DejaVuSans-110"/>
      <path d="M 48.78125 52.59375 
L 48.78125 44.1875 
Q 44.96875 46.296875 41.140625 47.34375 
Q 37.3125 48.390625 33.40625 48.390625 
Q 24.65625 48.390625 19.8125 42.84375 
Q 14.984375 37.3125 14.984375 27.296875 
Q 14.984375 17.28125 19.8125 11.734375 
Q 24.65625 6.203125 33.40625 6.203125 
Q 37.3125 6.203125 41.140625 7.25 
Q 44.96875 8.296875 48.78125 10.40625 
L 48.78125 2.09375 
Q 45.015625 0.34375 40.984375 -0.53125 
Q 36.96875 -1.421875 32.421875 -1.421875 
Q 20.0625 -1.421875 12.78125 6.34375 
Q 5.515625 14.109375 5.515625 27.296875 
Q 5.515625 40.671875 12.859375 48.328125 
Q 20.21875 56 33.015625 56 
Q 37.15625 56 41.109375 55.140625 
Q 45.0625 54.296875 48.78125 52.59375 
z
" id="DejaVuSans-99"/>
     </defs>
     <g transform="translate(290.580111 287.802886)scale(0.12 -0.12)">
      <use xlink:href="#DejaVuSans-78"/>
      <use x="74.804688" xlink:href="#DejaVuSans-111"/>
      <use x="135.986328" xlink:href="#DejaVuSans-110"/>
      <use x="199.365234" xlink:href="#DejaVuSans-65"/>
      <use x="267.757812" xlink:href="#DejaVuSans-99"/>
     </g>
    </g>
   </g>
   <g id="legend_1">
    <g id="patch_25">
     <path d="M 169.289687 302.584 
L 303.030313 302.584 
Q 305.030313 302.584 305.030313 300.584 
L 305.030313 257.549625 
Q 305.030313 255.549625 303.030313 255.549625 
L 169.289687 255.549625 
Q 167.289687 255.549625 167.289687 257.549625 
L 167.289687 300.584 
Q 167.289687 302.584 169.289687 302.584 
z
" style="fill:#ffffff;opacity:0.8;stroke:#cccccc;stroke-linejoin:miter;"/>
    </g>
    <g id="patch_26">
     <path d="M 171.289687 267.148062 
L 191.289687 267.148062 
L 191.289687 260.148062 
L 171.289687 260.148062 
z
" style="fill:#0000ff;stroke:#0000ff;stroke-linejoin:miter;"/>
    </g>
    <g id="text_7">
     <!-- University -->
     <defs>
      <path d="M 9.421875 54.6875 
L 18.40625 54.6875 
L 18.40625 0 
L 9.421875 0 
z
M 9.421875 75.984375 
L 18.40625 75.984375 
L 18.40625 64.59375 
L 9.421875 64.59375 
z
" id="DejaVuSans-105"/>
      <path d="M 2.984375 54.6875 
L 12.5 54.6875 
L 29.59375 8.796875 
L 46.6875 54.6875 
L 56.203125 54.6875 
L 35.6875 0 
L 23.484375 0 
z
" id="DejaVuSans-118"/>
      <path d="M 56.203125 29.59375 
L 56.203125 25.203125 
L 14.890625 25.203125 
Q 15.484375 15.921875 20.484375 11.0625 
Q 25.484375 6.203125 34.421875 6.203125 
Q 39.59375 6.203125 44.453125 7.46875 
Q 49.3125 8.734375 54.109375 11.28125 
L 54.109375 2.78125 
Q 49.265625 0.734375 44.1875 -0.34375 
Q 39.109375 -1.421875 33.890625 -1.421875 
Q 20.796875 -1.421875 13.15625 6.1875 
Q 5.515625 13.8125 5.515625 26.8125 
Q 5.515625 40.234375 12.765625 48.109375 
Q 20.015625 56 32.328125 56 
Q 43.359375 56 49.78125 48.890625 
Q 56.203125 41.796875 56.203125 29.59375 
z
M 47.21875 32.234375 
Q 47.125 39.59375 43.09375 43.984375 
Q 39.0625 48.390625 32.421875 48.390625 
Q 24.90625 48.390625 20.390625 44.140625 
Q 15.875 39.890625 15.1875 32.171875 
z
" id="DejaVuSans-101"/>
      <path d="M 41.109375 46.296875 
Q 39.59375 47.171875 37.8125 47.578125 
Q 36.03125 48 33.890625 48 
Q 26.265625 48 22.1875 43.046875 
Q 18.109375 38.09375 18.109375 28.8125 
L 18.109375 0 
L 9.078125 0 
L 9.078125 54.6875 
L 18.109375 54.6875 
L 18.109375 46.1875 
Q 20.953125 51.171875 25.484375 53.578125 
Q 30.03125 56 36.53125 56 
Q 37.453125 56 38.578125 55.875 
Q 39.703125 55.765625 41.0625 55.515625 
z
" id="DejaVuSans-114"/>
      <path d="M 44.28125 53.078125 
L 44.28125 44.578125 
Q 40.484375 46.53125 36.375 47.5 
Q 32.28125 48.484375 27.875 48.484375 
Q 21.1875 48.484375 17.84375 46.4375 
Q 14.5 44.390625 14.5 40.28125 
Q 14.5 37.15625 16.890625 35.375 
Q 19.28125 33.59375 26.515625 31.984375 
L 29.59375 31.296875 
Q 39.15625 29.25 43.1875 25.515625 
Q 47.21875 21.78125 47.21875 15.09375 
Q 47.21875 7.46875 41.1875 3.015625 
Q 35.15625 -1.421875 24.609375 -1.421875 
Q 20.21875 -1.421875 15.453125 -0.5625 
Q 10.6875 0.296875 5.421875 2 
L 5.421875 11.28125 
Q 10.40625 8.6875 15.234375 7.390625 
Q 20.0625 6.109375 24.8125 6.109375 
Q 31.15625 6.109375 34.5625 8.28125 
Q 37.984375 10.453125 37.984375 14.40625 
Q 37.984375 18.0625 35.515625 20.015625 
Q 33.0625 21.96875 24.703125 23.78125 
L 21.578125 24.515625 
Q 13.234375 26.265625 9.515625 29.90625 
Q 5.8125 33.546875 5.8125 39.890625 
Q 5.8125 47.609375 11.28125 51.796875 
Q 16.75 56 26.8125 56 
Q 31.78125 56 36.171875 55.265625 
Q 40.578125 54.546875 44.28125 53.078125 
z
" id="DejaVuSans-115"/>
      <path d="M 18.3125 70.21875 
L 18.3125 54.6875 
L 36.8125 54.6875 
L 36.8125 47.703125 
L 18.3125 47.703125 
L 18.3125 18.015625 
Q 18.3125 11.328125 20.140625 9.421875 
Q 21.96875 7.515625 27.59375 7.515625 
L 36.8125 7.515625 
L 36.8125 0 
L 27.59375 0 
Q 17.1875 0 13.234375 3.875 
Q 9.28125 7.765625 9.28125 18.015625 
L 9.28125 47.703125 
L 2.6875 47.703125 
L 2.6875 54.6875 
L 9.28125 54.6875 
L 9.28125 70.21875 
z
" id="DejaVuSans-116"/>
      <path d="M 32.171875 -5.078125 
Q 28.375 -14.84375 24.75 -17.8125 
Q 21.140625 -20.796875 15.09375 -20.796875 
L 7.90625 -20.796875 
L 7.90625 -13.28125 
L 13.1875 -13.28125 
Q 16.890625 -13.28125 18.9375 -11.515625 
Q 21 -9.765625 23.484375 -3.21875 
L 25.09375 0.875 
L 2.984375 54.6875 
L 12.5 54.6875 
L 29.59375 11.921875 
L 46.6875 54.6875 
L 56.203125 54.6875 
z
" id="DejaVuSans-121"/>
     </defs>
     <g transform="translate(199.289687 267.148062)scale(0.1 -0.1)">
      <use xlink:href="#DejaVuSans-85"/>
      <use x="73.193359" xlink:href="#DejaVuSans-110"/>
      <use x="136.572266" xlink:href="#DejaVuSans-105"/>
      <use x="164.355469" xlink:href="#DejaVuSans-118"/>
      <use x="223.535156" xlink:href="#DejaVuSans-101"/>
      <use x="285.058594" xlink:href="#DejaVuSans-114"/>
      <use x="326.171875" xlink:href="#DejaVuSans-115"/>
      <use x="378.271484" xlink:href="#DejaVuSans-105"/>
      <use x="406.054688" xlink:href="#DejaVuSans-116"/>
      <use x="445.263672" xlink:href="#DejaVuSans-121"/>
     </g>
    </g>
    <g id="patch_27">
     <path d="M 171.289687 281.826188 
L 191.289687 281.826188 
L 191.289687 274.826188 
L 171.289687 274.826188 
z
" style="fill:#008000;stroke:#008000;stroke-linejoin:miter;"/>
    </g>
    <g id="text_8">
     <!-- Housing Partner -->
     <defs>
      <path d="M 8.5 21.578125 
L 8.5 54.6875 
L 17.484375 54.6875 
L 17.484375 21.921875 
Q 17.484375 14.15625 20.5 10.265625 
Q 23.53125 6.390625 29.59375 6.390625 
Q 36.859375 6.390625 41.078125 11.03125 
Q 45.3125 15.671875 45.3125 23.6875 
L 45.3125 54.6875 
L 54.296875 54.6875 
L 54.296875 0 
L 45.3125 0 
L 45.3125 8.40625 
Q 42.046875 3.421875 37.71875 1 
Q 33.40625 -1.421875 27.6875 -1.421875 
Q 18.265625 -1.421875 13.375 4.4375 
Q 8.5 10.296875 8.5 21.578125 
z
M 31.109375 56 
z
" id="DejaVuSans-117"/>
      <path d="M 45.40625 27.984375 
Q 45.40625 37.75 41.375 43.109375 
Q 37.359375 48.484375 30.078125 48.484375 
Q 22.859375 48.484375 18.828125 43.109375 
Q 14.796875 37.75 14.796875 27.984375 
Q 14.796875 18.265625 18.828125 12.890625 
Q 22.859375 7.515625 30.078125 7.515625 
Q 37.359375 7.515625 41.375 12.890625 
Q 45.40625 18.265625 45.40625 27.984375 
z
M 54.390625 6.78125 
Q 54.390625 -7.171875 48.1875 -13.984375 
Q 42 -20.796875 29.203125 -20.796875 
Q 24.46875 -20.796875 20.265625 -20.09375 
Q 16.0625 -19.390625 12.109375 -17.921875 
L 12.109375 -9.1875 
Q 16.0625 -11.328125 19.921875 -12.34375 
Q 23.78125 -13.375 27.78125 -13.375 
Q 36.625 -13.375 41.015625 -8.765625 
Q 45.40625 -4.15625 45.40625 5.171875 
L 45.40625 9.625 
Q 42.625 4.78125 38.28125 2.390625 
Q 33.9375 0 27.875 0 
Q 17.828125 0 11.671875 7.65625 
Q 5.515625 15.328125 5.515625 27.984375 
Q 5.515625 40.671875 11.671875 48.328125 
Q 17.828125 56 27.875 56 
Q 33.9375 56 38.28125 53.609375 
Q 42.625 51.21875 45.40625 46.390625 
L 45.40625 54.6875 
L 54.390625 54.6875 
z
" id="DejaVuSans-103"/>
      <path id="DejaVuSans-32"/>
      <path d="M 19.671875 64.796875 
L 19.671875 37.40625 
L 32.078125 37.40625 
Q 38.96875 37.40625 42.71875 40.96875 
Q 46.484375 44.53125 46.484375 51.125 
Q 46.484375 57.671875 42.71875 61.234375 
Q 38.96875 64.796875 32.078125 64.796875 
z
M 9.8125 72.90625 
L 32.078125 72.90625 
Q 44.34375 72.90625 50.609375 67.359375 
Q 56.890625 61.8125 56.890625 51.125 
Q 56.890625 40.328125 50.609375 34.8125 
Q 44.34375 29.296875 32.078125 29.296875 
L 19.671875 29.296875 
L 19.671875 0 
L 9.8125 0 
z
" id="DejaVuSans-80"/>
      <path d="M 34.28125 27.484375 
Q 23.390625 27.484375 19.1875 25 
Q 14.984375 22.515625 14.984375 16.5 
Q 14.984375 11.71875 18.140625 8.90625 
Q 21.296875 6.109375 26.703125 6.109375 
Q 34.1875 6.109375 38.703125 11.40625 
Q 43.21875 16.703125 43.21875 25.484375 
L 43.21875 27.484375 
z
M 52.203125 31.203125 
L 52.203125 0 
L 43.21875 0 
L 43.21875 8.296875 
Q 40.140625 3.328125 35.546875 0.953125 
Q 30.953125 -1.421875 24.3125 -1.421875 
Q 15.921875 -1.421875 10.953125 3.296875 
Q 6 8.015625 6 15.921875 
Q 6 25.140625 12.171875 29.828125 
Q 18.359375 34.515625 30.609375 34.515625 
L 43.21875 34.515625 
L 43.21875 35.40625 
Q 43.21875 41.609375 39.140625 45 
Q 35.0625 48.390625 27.6875 48.390625 
Q 23 48.390625 18.546875 47.265625 
Q 14.109375 46.140625 10.015625 43.890625 
L 10.015625 52.203125 
Q 14.9375 54.109375 19.578125 55.046875 
Q 24.21875 56 28.609375 56 
Q 40.484375 56 46.34375 49.84375 
Q 52.203125 43.703125 52.203125 31.203125 
z
" id="DejaVuSans-97"/>
     </defs>
     <g transform="translate(199.289687 281.826188)scale(0.1 -0.1)">
      <use xlink:href="#DejaVuSans-72"/>
      <use x="75.195312" xlink:href="#DejaVuSans-111"/>
      <use x="136.376953" xlink:href="#DejaVuSans-117"/>
      <use x="199.755859" xlink:href="#DejaVuSans-115"/>
      <use x="251.855469" xlink:href="#DejaVuSans-105"/>
      <use x="279.638672" xlink:href="#DejaVuSans-110"/>
      <use x="343.017578" xlink:href="#DejaVuSans-103"/>
      <use x="406.494141" xlink:href="#DejaVuSans-32"/>
      <use x="438.28125" xlink:href="#DejaVuSans-80"/>
      <use x="498.521484" xlink:href="#DejaVuSans-97"/>
      <use x="559.800781" xlink:href="#DejaVuSans-114"/>
      <use x="600.914062" xlink:href="#DejaVuSans-116"/>
      <use x="640.123047" xlink:href="#DejaVuSans-110"/>
      <use x="703.501953" xlink:href="#DejaVuSans-101"/>
      <use x="765.025391" xlink:href="#DejaVuSans-114"/>
     </g>
    </g>
    <g id="patch_28">
     <path d="M 171.289687 296.504312 
L 191.289687 296.504312 
L 191.289687 289.504312 
L 171.289687 289.504312 
z
" style="fill:#ff0000;stroke:#ff0000;stroke-linejoin:miter;"/>
    </g>
    <g id="text_9">
     <!-- Non-Hosting Partner -->
     <defs>
      <path d="M 4.890625 31.390625 
L 31.203125 31.390625 
L 31.203125 23.390625 
L 4.890625 23.390625 
z
" id="DejaVuSans-45"/>
     </defs>
     <g transform="translate(199.289687 296.504312)scale(0.1 -0.1)">
      <use xlink:href="#DejaVuSans-78"/>
      <use x="74.804688" xlink:href="#DejaVuSans-111"/>
      <use x="135.986328" xlink:href="#DejaVuSans-110"/>
      <use x="199.365234" xlink:href="#DejaVuSans-45"/>
      <use x="235.449219" xlink:href="#DejaVuSans-72"/>
      <use x="310.644531" xlink:href="#DejaVuSans-111"/>
      <use x="371.826172" xlink:href="#DejaVuSans-115"/>
      <use x="423.925781" xlink:href="#DejaVuSans-116"/>
      <use x="463.134766" xlink:href="#DejaVuSans-105"/>
      <use x="490.917969" xlink:href="#DejaVuSans-110"/>
      <use x="554.296875" xlink:href="#DejaVuSans-103"/>
      <use x="617.773438" xlink:href="#DejaVuSans-32"/>
      <use x="649.560547" xlink:href="#DejaVuSans-80"/>
      <use x="709.800781" xlink:href="#DejaVuSans-97"/>
      <use x="771.080078" xlink:href="#DejaVuSans-114"/>
      <use x="812.193359" xlink:href="#DejaVuSans-116"/>
      <use x="851.402344" xlink:href="#DejaVuSans-110"/>
      <use x="914.78125" xlink:href="#DejaVuSans-101"/>
      <use x="976.304688" xlink:href="#DejaVuSans-114"/>
     </g>
    </g>
   </g>
  </g>
 </g>
 <defs>
  <clipPath id="p8c1c48f916">
   <rect height="266.112" width="357.12" x="57.6" y="41.472"/>
  </clipPath>
 </defs>
</svg>
